<?xml version="1.0" standalone="no"?>
<!DOCTYPE svg PUBLIC "-//W3C//DTD SVG 20010904//EN"
 "http://www.w3.org/TR/2001/REC-SVG-20010904/DTD/svg10.dtd">
<svg version="1.0" xmlns="http://www.w3.org/2000/svg"
 width="300.000000pt" height="387.000000pt" viewBox="0 0 300.000000 387.000000"
 preserveAspectRatio="xMidYMid meet">
<metadata>
Created by potrace 1.10, written by Peter Selinger 2001-2011
</metadata>
<g transform="translate(0.000000,387.000000) scale(0.100000,-0.100000)"
fill="#000000" stroke="none">
<path d="M1368 3860 c-286 -52 -526 -247 -627 -509 -42 -111 -55 -182 -54
-306 0 -138 20 -219 83 -350 84 -173 197 -287 365 -371 126 -62 221 -84 365
-84 144 0 239 22 365 84 168 84 281 198 365 371 63 131 83 212 83 350 1 124
-12 195 -54 306 -89 232 -297 420 -541 489 -82 24 -272 35 -350 20z"/>
<path d="M1295 2144 c-377 -68 -720 -309 -958 -675 -197 -302 -313 -674 -333
-1069 -6 -119 -5 -126 16 -153 111 -140 753 -247 1480 -247 727 0 1369 107
1480 247 21 27 22 34 16 153 -46 900 -583 1621 -1300 1745 -109 18 -294 18
-401 -1z"/>
</g>
</svg>
